<?xml version="1.0" encoding="UTF-8" standalone="no"?>
<!-- Created with Inkscape (http://www.inkscape.org/) -->

<svg
   version="1.1"
   id="svg242400"
   width="123.85889"
   height="91.444923"
   viewBox="0 0 123.85889 91.444924"
   sodipodi:docname="14833541_5524640.eps"
   xmlns:inkscape="http://www.inkscape.org/namespaces/inkscape"
   xmlns:sodipodi="http://sodipodi.sourceforge.net/DTD/sodipodi-0.dtd"
   xmlns="http://www.w3.org/2000/svg"
   xmlns:svg="http://www.w3.org/2000/svg">
  <defs
     id="defs242404" />
  <sodipodi:namedview
     id="namedview242402"
     pagecolor="#ffffff"
     bordercolor="#000000"
     borderopacity="0.25"
     inkscape:showpageshadow="2"
     inkscape:pageopacity="0.0"
     inkscape:pagecheckerboard="0"
     inkscape:deskcolor="#d1d1d1"
     showgrid="false" />
  <g
     id="g242408"
     inkscape:groupmode="layer"
     inkscape:label="Page 1"
     transform="matrix(1.3333333,0,0,-1.3333333,2188.5818,601.14416)">
    <g
       id="g247974">
      <g
         id="g247961">
        <path
           d="m -1629.8664,428.90042 c 1.02,2.63 3.33,4.7 6.07,5.42 4.58,1.29 9.5,0.29 13.76,-1.65 2.58,-1.22 5.31,-2.38 7.33,-4.479 1.31,-1.331 2.69,-2.601 3.84,-4.071 -1.38,-1.67 -3.43,-2.97 -3.87,-5.25 -0.66,-2.39 1.11,-4.46 2.28,-6.36 1.61,-2.06 3.36,-4.1 5.61,-5.47 5.08,-3.21 11.6,-3.92 17.31,-2.17 1.02,0.27 2.01,0.73 3.08,0.83 4.68,-0.56 9.45,-0.44 14.07,-1.52 3.5,-0.85 7.15,-1.54 10.24,-3.489 -2.37,-2.051 -5.64,-1.751 -8.47,-2.561 -1.13,-0.2 -1.01,-1.59 -0.69,-2.42 1.69,-0.84 3.71,-1.02 5.111,-2.41 -3.931,-1.78 -8.351,-0.92 -12.481,-0.57 -0.37,-1.06 -0.1,-2.11 0.53,-3.02 -1.64,-0.96 -3.51,-1.42 -5.38,-1.6 -1.54,-0.2 -3.27,-0.18 -4.48,-1.29 -0.7,-0.549 -1.13,-1.46 -1.99,-1.77 -2.64,-0.68 -5.29,-1.66 -8.05,-1.11 -0.68,3.79 -1.23,7.72 -3.19,11.11 -1.36,2.91 -3.57,5.259 -5.7,7.61 -1.54,1.82 -3.51,3.19 -5.25,4.8 -3.09,2.85 -6.94,4.71 -10.77,6.35 -4.5,1.88 -9.67,1.04 -13.86,-1.25 -0.26,1.58 -0.49,3.26 -1.52,4.55 -1.3,1.68 -3.071,3.03 -3.89,5.04 -1.01,2.159 -0.45,4.62 0.36,6.75 m 60.03,11.22 c 2.44,0.69 4.96,1.56 7.53,1.13 -1.11,-3.84 -4.78,-5.94 -7.32,-8.74 0.3,-0.49 0.63,-0.99 0.96,-1.489 2.76,0.829 5.57,2.199 8.53,1.539 -1.12,-1.52 -2.79,-2.5 -3.96,-3.97 -0.5,-0.5 0.11,-1.31 0.58,-1.62 2.17,-0.16 4.61,0.2 6.4,-1.36 -1.211,-2.51 -4.07,-3.33 -6.14,-4.92 0.22,-1.28 1.59,-1.75 2.37,-2.66 -0.04,-1.12 -1.05,-1.87 -1.74,-2.64 -2.79,-2.66 -5.73,-5.27 -9.27,-6.88 -2.84,-1.28 -5.82,-2.33 -8.89,-2.91 -2.92,-0.59 -5.92,-0.04 -8.76,0.71 -2.79,0.961 -5.38,2.64 -7.29,4.9 -1.65,1.81 -3.32,3.71 -4.21,6.03 -0.21,1.741 0.29,3.66 1.56,4.91 4.07,4.16 8.77,7.63 13.64,10.76 4.939,3.19 10.43,5.41 16.01,7.21 m -38.84,-49.45 c -4.42,2.58 -8.86,5.48 -11.83,9.75 -2.36,3.17 -3.54,7.03 -4.17,10.89 2.69,1.11 5.44,2.36 8.41,2.35 3.78,0.19 7.22,-1.61 10.5,-3.23 3.41,-1.66 6.08,-4.41 8.95,-6.82 2.63,-2.79 5.39,-5.6 6.96,-9.16 1.69,-3.16 2.03,-6.81 2.24,-10.33 -7.42,0.43 -14.66,2.8 -21.06,6.55 m -26.73,30.25 c -0.82,-1.45 -1.74,-2.84 -2.61,-4.26 -0.68,-0.94 -0.25,-2.14 -0.2,-3.2 3.05,1.55 6.01,3.28 8.97,5 1.22,-1.24 2.75,-2.43 3.08,-4.25 0.45,-2.36 0.7,-4.77 1.41,-7.08 1.03,-3.76 3.05,-7.2 5.69,-10.05 3.76,-4.02 8.54,-6.9 13.33,-9.55 6.43,-3.32 13.66,-5.57 20.97,-4.98 1.041,0.174 2.107,0.039 3.17,-0.097 1.563,-0.199 3.118,-0.398 4.57,0.387 1.3,0.55 1.75,2.33 3.26,2.47 1.92,0.32 3.93,0.32 5.76,1.08 1.75,0.7 3.55,1.841 4.07,3.77 2.71,-0.139 5.48,-0.36 8.15,0.26 1.47,0.37 3.03,1.26 3.55,2.77 0,1.9 -1.95,2.8 -3.46,3.41 2.55,0.36 5.44,1.15 6.9,3.45 0.719,0.98 -0.23,2.08 -1.08,2.56 -2.48,1.4 -5.31,2 -8.04,2.68 -4.72,1.15 -9.59,1.44 -14.43,1.31 3.55,1.37 6.7,3.58 9.38,6.26 1.32,1.35 2.97,2.66 3.349,4.62 0.211,1.17 -0.859,1.94 -1.609,2.64 1.55,0.89 3.22,1.69 4.43,3.04 0.83,0.99 1.33,2.61 0.32,3.66 -1.36,1.54 -3.58,1.53 -5.47,1.54 1.45,1.2 3.24,2.47 3.44,4.51 0.03,0.84 -0.82,1.25 -1.49,1.5 -1.91,0.6 -3.911,0.01 -5.78,-0.45 1.54,1.47 3.04,3.02 4.03,4.92 0.47,0.94 0.85,2.1 0.43,3.13 -0.57,0.87 -1.74,1.02 -2.68,1 -2.73,-0.18 -5.371,-0.98 -7.95,-1.84 0.68,1.24 1.72,2.69 1.05,4.14 -0.761,1.42 -2.63,1.41 -3.98,1.04 0.33,0.96 0.93,1.95 0.77,2.99 -0.44,1.61 -2.52,1.8 -3.86,1.34 -3.41,-1.02 -6.15,-3.47 -8.651,-5.9 -2.369,-2.42 -4.669,-4.9 -6.829,-7.52 -2.45,-2.98 -4.6,-6.19 -7,-9.21 -1.44,1.88 -3.12,3.6 -5.211,4.73 -3.619,2.06 -7.479,3.95 -11.669,4.32 -3.44,0.33 -7.11,-0.11 -10.06,-2.001 -2.34,-1.499 -3.65,-4.089 -4.43,-6.669 -3.15,-1.67 -6.69,-2.55 -9.62,-4.59 0.19,-0.45 -0.01,-1.29 0.63,-1.41 1.81,-0.43 3.63,-0.87 5.4,-1.47"
           style="fill:#171418;fill-opacity:1;fill-rule:nonzero;stroke:none;stroke-width:0.1"
           id="path242592" />
        <path
           d="m -1579.1264,411.82042 c 2.84,-0.02 5.63,0.91 8.05,2.35 1.12,0.69 2.3,1.88 2.02,3.32 -0.26,1.37 -1.67,1.991 -2.82,2.47 1.42,0.95 3.17,1.81 3.74,3.55 -0.31,2.03 -2.83,1.79 -4.34,1.68 1.14,1.23 2.37,2.5 2.91,4.13 0.37,1.18 -0.92,2.11 -1.98,2.19 -2.6,0.28 -5.14,-0.78 -7.27,-2.2 0.01,-0.31 0.02,-0.92 0.03,-1.23 2.39,1.17 5.06,2.2 7.76,1.61 -1.02,-1.82 -2.56,-3.23 -4,-4.7 -0.7,-0.55 -0.67,-1.48 -0.5,-2.259 1.88,0.319 3.71,1.059 5.659,0.779 -1.109,-1.07 -2.469,-1.8 -3.679,-2.72 -0.51,-0.35 -0.49,-1.04 -0.52,-1.59 1.28,-0.79 3.11,-0.57 3.94,-2.08 -2.22,-2.84 -5.84,-3.9 -9,-5.3"
           style="fill:#171418;fill-opacity:1;fill-rule:nonzero;stroke:none;stroke-width:0.1"
           id="path242594" />
        <path
           d="m -1575.6764,390.83042 c -0.4,0.92 -0.91,1.79 -1.51,2.59 -0.37,-0.14 -0.73,-0.28 -1.08,-0.45 0.74,-0.85 1.65,-1.53 2.59,-2.14"
           style="fill:#171418;fill-opacity:1;fill-rule:nonzero;stroke:none;stroke-width:0.1"
           id="path242598" />
        <path
           d="m -1582.0464,422.46042 c 0.43,-2.41 -3.31,-2.29 -3.2,-4.54 1.45,-0.15 3,-0.44 3.94,-1.69 -1.29,-1.89 -3.32,-2.99 -5.07,-4.38 2.72,-0.01 5.9,1.19 7.03,3.84 0.33,1.79 -1.5,2.98 -3,3.42 0.69,0.66 1.46,1.35 1.65,2.34 0.3,1.06 -0.33,2.27 -1.35,2.65 -1.65,0.65 -3.52,0.18 -4.95,-0.77 1.6,-0.03 3.88,0.74 4.95,-0.87"
           style="fill:#171418;fill-opacity:1;fill-rule:nonzero;stroke:none;stroke-width:0.1"
           id="path242600" />
        <path
           d="m -1578.0264,388.89042 c -0.29,1.33 -0.9,2.63 -2.23,3.16 0.38,-1.27 1.19,-2.34 2.23,-3.16"
           style="fill:#171418;fill-opacity:1;fill-rule:nonzero;stroke:none;stroke-width:0.1"
           id="path242602" />
        <path
           d="m -1589.9664,418.56042 c 1.01,-0.55 2.51,-0.84 2.84,-2.13 -0.37,-1.42 -1.64,-2.31 -2.49,-3.42 1.71,0.59 3.8,1.95 3.64,4 -0.72,1.44 -2.53,1.77 -3.99,1.55"
           style="fill:#171418;fill-opacity:1;fill-rule:nonzero;stroke:none;stroke-width:0.1"
           id="path242604" />
        <path
           d="m -1599.2764,389.01042 c 0.08,1.27 0.22,2.78 -0.83,3.72 0.2,-1.25 0.45,-2.51 0.83,-3.72"
           style="fill:#171418;fill-opacity:1;fill-rule:nonzero;stroke:none;stroke-width:0.1"
           id="path242606" />
        <path
           d="m -1602.5164,394.32042 c 0.06,-1.63 0.38,-3.24 0.82,-4.82 0.16,1.6 0.81,3.78 -0.82,4.82"
           style="fill:#171418;fill-opacity:1;fill-rule:nonzero;stroke:none;stroke-width:0.1"
           id="path242608" />
        <path
           d="m -1620.4831,428.16742 c 0.32,1.25 -1.44,1.89 -2.37,1.39 -1.89,-0.34 -2.6,-2.58 -1.661,-4.13 1.691,-0.01 3.611,0.99 4.031,2.74"
           style="fill:#171418;fill-opacity:1;fill-rule:nonzero;stroke:none;stroke-width:0.1"
           id="path242610" />
        <path
           d="m -1573.1514,394.16242 h -0.92 c -0.099,0.161 -0.19,0.328 -0.272,0.5 h 0.887 c 0.115,-0.155 0.216,-0.323 0.305,-0.5"
           style="fill:#141316;fill-opacity:1;fill-rule:nonzero;stroke:none;stroke-width:0.1"
           id="path244244" />
      </g>
    </g>
  </g>
</svg>
