<?xml version="1.0" encoding="UTF-8" standalone="no"?>
<!-- Created with Inkscape (http://www.inkscape.org/) -->

<svg
   version="1.1"
   id="svg242400"
   width="125.22803"
   height="142.09492"
   viewBox="0 0 125.22803 142.09493"
   sodipodi:docname="14833541_5524640.eps"
   xmlns:inkscape="http://www.inkscape.org/namespaces/inkscape"
   xmlns:sodipodi="http://sodipodi.sourceforge.net/DTD/sodipodi-0.dtd"
   xmlns="http://www.w3.org/2000/svg"
   xmlns:svg="http://www.w3.org/2000/svg">
  <defs
     id="defs242404" />
  <sodipodi:namedview
     id="namedview242402"
     pagecolor="#ffffff"
     bordercolor="#000000"
     borderopacity="0.25"
     inkscape:showpageshadow="2"
     inkscape:pageopacity="0.0"
     inkscape:pagecheckerboard="0"
     inkscape:deskcolor="#d1d1d1"
     showgrid="false" />
  <g
     id="g242408"
     inkscape:groupmode="layer"
     inkscape:label="Page 1"
     transform="matrix(1.3333333,0,0,-1.3333333,2215.0725,797.21234)">
    <g
       id="g247949">
      <path
         d="m -1581.1477,592.46938 c 1.55,2.16 4.01,3.7 6.69,3.89 1.68,0.22 3.63,-0.31 4.51,-1.87 1.87,-3.22 1.88,-7.36 0.23,-10.67 -2.4,-4.85 -5.76,-9.24 -9.84,-12.8 -1.51,3.4 -3.34,6.72 -3.93,10.44 -0.73,3.79 0.03,7.89 2.34,11.01 m 2.38,-22.73 c 1.13,0.58 1.94,1.59 2.8,2.5 2.41,2.54 4.45,5.41 6.13,8.48 1.69,2.95 2.88,6.37 2.31,9.81 -0.37,2.06 -0.87,4.25 -2.34,5.82 -1.78,1.79 -4.58,1.76 -6.88,1.28 -4.19,-1.06 -6.95,-5.06 -8.01,-9.04 -1.41,-5.65 0.77,-11.49 3.94,-16.13 0.69,-0.89 0.98,-2.19 2.05,-2.72"
         style="fill:#171418;fill-opacity:1;fill-rule:nonzero;stroke:none;stroke-width:0.1"
         id="path243156" />
      <path
         d="m -1575.8277,583.68938 c 2.89,-0.11 5.08,3.26 4.33,5.92 -0.58,1.88 -2.86,2.61 -4.62,2.04 -1.42,-0.47 -2.46,-1.78 -2.77,-3.22 -0.44,-2.02 0.8,-4.6 3.06,-4.74"
         style="fill:#171418;fill-opacity:1;fill-rule:nonzero;stroke:none;stroke-width:0.1"
         id="path243158" />
      <path
         d="m -1637.5379,592.62938 c 4.8102,1.94 10.0402,2.86 15.2202,2.63 -0.09,-1.06 -0.09,-2.24 -0.83,-3.09 -0.85,-1.08 -2.42,-1.38 -3.68,-0.92 -0.96,0.49 -1.56,1.44 -2.37,2.11 -0.28,-1.44 -0.67,-2.94 -1.86,-3.92 -1.14,0.69 -1.72,1.97 -2.8,2.7 -2.0197,-0.38 -3.5302,-2.04 -5.5798,-2.39 -0.04,1.24 0.7394,2.44 1.8996,2.88 m 36.9902,-5.6 c 1.5,-0.59 2.51,-1.95 3.67,-3.01 8.32,-8.26 12.03,-20.82 9.46,-32.27 -1.32,0.17 -2.73,0.35 -3.97,-0.28 -1.33,-0.64 -2.7,-1.3 -4.21,-1.28 -0.367,-0.038 -0.748,-0.011 -1.128,0.015 -0.716,0.051 -1.431,0.101 -2.052,-0.285 -1.71,-1.36 -1.81,-4.02 -3.74,-5.16 -1.26,-0.46 -2.32,0.68 -3.13,1.48 -2.46,2.8 -4.97,5.92 -5.52,9.72 -0.33,1.48 1.08,2.46 2.16,3.15 3.17,2.02 7.05,2.04 10.55,3.11 1.08,0.28 2.15,1.19 2.09,2.4 -0.03,0.81 -0.81,1.29 -1.45,1.62 -1.43,0.65 -3.15,0.67 -4.34,1.79 -1.6,1.38 -3.7,2.27 -4.89,4.07 0.43,1.23 1.69,2.44 1.01,3.81 -1.27,2.52 -4.89,2.79 -5.88,5.51 -0.55,1.6 1.16,2.61 2.3,3.31 2.77,1.43 5.88,2.83 9.07,2.3 m -9.44,-61.8 c -5.03,-2 -10.49,-2.66 -15.88,-2.38 -0.24,0.31 -0.48,0.63 -0.73,0.94 1.75,1.06 3.75,0.54 5.64,0.42 0.85,0.54 0.89,1.72 1.47,2.49 0.87,-0.17 1.62,-0.66 2.45,-0.92 1.3,0.41 2.12,1.65 3.32,2.25 1.24,0.7 2.72,0.37 4.03,0.12 -0.1,-0.97 -0.2,-1.95 -0.3,-2.92 m -39.41,49.25 c 0.5199,1.18 1.3703,2.17 2.2102,3.14 2.6496,2.89 5.6996,5.5 9.2898,7.13 1.0801,0.48 2.2102,0.93 3.4,1.02 1.04,-0.44 2,-1.14 3.17,-1.22 0.972,-0.21 1.944,-0.122 2.913,-0.033 0.597,0.054 1.192,0.109 1.787,0.093 1.8,-0.19 3.62,-0.85 4.87,-2.2 1.34,-1.33 3.15,-2.72 3.15,-4.79 -1.06,-2.26 -3.67,-3.4 -4.59,-5.78 -0.45,-0.94 -0.49,-2.33 -1.66,-2.71 -2.11,-0.87 -4.56,-0.37 -6.61,-1.48 -1.43,-0.72 -3.08,-2.03 -2.72,-3.84 0.14,-1.49 1.36,-2.48 2.49,-3.31 -0.96,-1.25 -2.04,-2.8 -1.53,-4.46 0.2,-1.08 0.98,-2.02 2.03,-2.38 2.81,-1.07 5.93,-0.5 8.79,-1.33 1.49,-0.4 1.96,-2.08 2.03,-3.44 0.17,-2.79 -1.55,-5.16 -2.79,-7.51 -0.74,-1.33 -1.5,-2.78 -1.31,-4.36 0.32,-2.73 0.85,-5.43 1.53,-8.09 -3.15,0.37 -6.46,1.12 -8.89,3.3 -2.06,1.69 -3.16,4.24 -5.2401,5.91 -2.1398,1.75 -4.6996,2.88 -7.0199,4.35 -1.3902,0.85 -2.5,2.18 -2.8504,3.79 -0.6797,2.23 1.3504,4.03 1.3805,6.22 1.8597,1.66 4.1004,2.78 6.3597,3.79 1.22,0.56 2.6407,1.76 2.1805,3.26 -0.9301,1.37 -2.4801,2.16 -3.8402,3.05 -2.218,1.183 -4.6934,0.998 -7.1406,0.812 -1.0286,-0.077 -2.0524,-0.156 -3.0497,-0.132 -1.2699,-0.01 -2.5093,1.03 -2.4796,2.34 1.0703,2.08 3.2699,3.32 4.2496,5.46 0.4703,1.11 -0.5297,2.28 -0.1098,3.4 m 16.64,-52.16 c 8.76,-2.22 18.31,-1.09 26.33,3.06 9.24,4.7 16.33,13.33 19.29,23.25 2.26,7.6 2.3,15.9 -0.18,23.45 -2.59,8.11 -8.19,15.15 -15.38,19.68 -7.41,4.73 -16.51,6.56 -25.2,5.49 -8.2,-0.99 -16.0602,-4.74 -21.8996,-10.6 -6.4504,-6.3 -10.4203,-15 -11.3406,-23.95 -0.9696,-10.1 2.33,-20.55 8.9398,-28.26 4.9809,-5.95 11.9008,-10.26 19.4404,-12.12"
         style="fill:#171418;fill-opacity:1;fill-rule:nonzero;stroke:none;stroke-width:0.1"
         id="path243178" />
      <path
         d="m -1577.5977,561.19938 c 0.51,1.63 0.91,3.88 -0.46,5.18 -0.14,-0.04 -0.42,-0.11 -0.56,-0.15 -1.75,-1.22 -1.28,-4.79 1.02,-5.03"
         style="fill:#171418;fill-opacity:1;fill-rule:nonzero;stroke:none;stroke-width:0.1"
         id="path243224" />
      <path
         d="m -1579.4077,551.03938 c 1.86,1.93 2.92,5.2 1.35,7.62 -1.05,-0.96 -1.71,-2.27 -1.6,-3.73 0.11,-1.28 -0.77,-2.84 0.25,-3.89"
         style="fill:#171418;fill-opacity:1;fill-rule:nonzero;stroke:none;stroke-width:0.1"
         id="path243226" />
      <path
         d="m -1580.2077,548.39938 c -0.83,-0.61 -1.82,-1.19 -2.21,-2.21 -0.31,-0.82 -0.53,-1.68 -0.79,-2.52 0.5,-0.36 0.98,-0.8 1.59,-0.96 1.69,1.36 1.81,3.72 1.41,5.69"
         style="fill:#171418;fill-opacity:1;fill-rule:nonzero;stroke:none;stroke-width:0.1"
         id="path243228" />
      <path
         d="m -1591.9377,526.21938 c 0.91,0.64 1.8,1.32 2.54,2.16 0.8,0.94 0.71,2.26 0.73,3.41 -2.13,-0.67 -3.57,-2.43 -4.45,-4.4 0.35,-0.42 0.77,-0.79 1.18,-1.17"
         style="fill:#171418;fill-opacity:1;fill-rule:nonzero;stroke:none;stroke-width:0.1"
         id="path243232" />
      <path
         d="m -1595.2477,524.26938 c -2.23,-0.17 -3.55,-2.08 -5.09,-3.45 0.49,-0.31 0.94,-0.75 1.53,-0.88 1,0.09 1.85,0.72 2.57,1.37 0.75,0.78 0.8,1.95 0.99,2.96"
         style="fill:#171418;fill-opacity:1;fill-rule:nonzero;stroke:none;stroke-width:0.1"
         id="path243234" />
      <path
         d="m -1609.4477,515.90938 c 0.32,-0.49 0.61,-1.02 1.04,-1.44 1.08,0.02 2.17,0.3 3.13,0.8 0.82,0.52 0.99,1.57 1.28,2.42 -2.02,0.21 -3.67,-1.08 -5.45,-1.78"
         style="fill:#171418;fill-opacity:1;fill-rule:nonzero;stroke:none;stroke-width:0.1"
         id="path243236" />
      <path
         d="m -1615.6677,492.37938 c -4.47,1.65 -8.34,4.52 -11.87,7.67 -2.16,2.02 -3.85,4.7 -4.24,7.67 -0.36,3.54 1.8,7.2 5.13,8.48 1.82,0.69 3.77,0.99 5.7,1.11 1.52,0.11 2.66,-1.14 3.23,-2.43 1.57,-3.35 1.8,-7.13 2.01,-10.77 -0.17,-3.92 0.57,-7.83 0.04,-11.73 m 1.06,15.49 c -0.45,3.1 -1.22,6.25 -3.02,8.86 -0.8,1.21 -2.25,1.88 -3.68,1.78 -3.11,-0.22 -6.53,-0.52 -8.96,-2.69 -2.85,-2.62 -4.1101,-6.92 -2.9,-10.63 1.01,-3.17 2.98,-6.02 5.6,-8.06 3.73,-3.1 8.14,-5.86 13.17,-5.79 0.58,1.94 0.34,3.98 0.32,5.98 -0.25,3.51 0.07,7.07 -0.53,10.55"
         style="fill:#171418;fill-opacity:1;fill-rule:nonzero;stroke:none;stroke-width:0.1"
         id="path243238" />
      <path
         d="m -1624.1177,512.65938 c -1.36,-0.36 -2.53,-1.33 -3.16,-2.59 -1,-1.98 -0.44,-4.68 1.44,-5.91 1.6,-1.05 3.83,-0.52 5.1,0.82 1.45,1.58 2.23,4.02 1.32,6.06 -0.86,1.66 -3.01,2.12 -4.7,1.62"
         style="fill:#171418;fill-opacity:1;fill-rule:nonzero;stroke:none;stroke-width:0.1"
         id="path243240" />
      <path
         d="m -1584.4607,535.97338 h -2.48 c 0.051,0.167 0.102,0.334 0.155,0.5 h 2.555 c -0.064,-0.171 -0.14,-0.339 -0.23,-0.5"
         style="fill:#141316;fill-opacity:1;fill-rule:nonzero;stroke:none;stroke-width:0.1"
         id="path243550" />
    </g>
  </g>
</svg>
