<?xml version="1.0" encoding="UTF-8" standalone="no"?>
<!-- Created with Inkscape (http://www.inkscape.org/) -->

<svg
   version="1.1"
   id="svg242400"
   width="62.544067"
   height="62.82312"
   viewBox="0 0 62.544067 62.82312"
   sodipodi:docname="14833541_5524640.eps"
   xmlns:inkscape="http://www.inkscape.org/namespaces/inkscape"
   xmlns:sodipodi="http://sodipodi.sourceforge.net/DTD/sodipodi-0.dtd"
   xmlns="http://www.w3.org/2000/svg"
   xmlns:svg="http://www.w3.org/2000/svg">
  <defs
     id="defs242404" />
  <sodipodi:namedview
     id="namedview242402"
     pagecolor="#ffffff"
     bordercolor="#000000"
     borderopacity="0.25"
     inkscape:showpageshadow="2"
     inkscape:pageopacity="0.0"
     inkscape:pagecheckerboard="0"
     inkscape:deskcolor="#d1d1d1"
     showgrid="false" />
  <g
     id="g242408"
     inkscape:groupmode="layer"
     inkscape:label="Page 1"
     transform="matrix(1.3333333,0,0,-1.3333333,1200.528,22.51848)">
    <g
       id="g267919">
      <path
         d="m -858.14757,-14.01241 c -0.03,-0.1504 -0.08,-0.4601 -0.11,-0.6101 -1.36,-1.2903 -3.12,-2.05 -4.72,-2.9903 -1.43,2.0102 -1.82,4.4704 -2.41,6.8 -3.35,-0.2199 -6.36,-1.8796 -9.32,-3.3199 1.04,-1.95 1.82,-4.0097 2.75,-6 0.3,-0.7801 0.74,-1.789 0.18,-2.55 -1.13,-0.8801 -2.47,-1.45 -3.69,-2.1801 -0.929,1.5602 -1.35,3.3704 -2.4,4.8602 -0.75,1.0602 -1.24,2.3301 -2.26,3.15 -1.09,0.1102 -2.01,-0.5801 -2.98,-0.95 -1.76,-0.7 -3.31,-1.7801 -4.83,-2.8898 -0.77,1.2097 -1.48,2.45 -2.16,3.7097 2.08,1.6801 4.58,2.6602 6.91,3.9 0.76,0.35 1.02,1.3102 0.67,2.0301 -0.73,1.9897999 -1.41,4.1300999 -2.99,5.6198999 -3.65,0.3699 -6.72,-2.1199 -9.79,-3.7199 -0.77,1.2309 -1.35,2.559 -1.95,3.8801 2.9,1.4199 5.66,3.2398 8.82,4.0699 0.79,1.50999998 0.09,3.17 -0.22,4.71 -0.41,1.9 -1.11,3.72 -1.91,5.48 1.29,0.74 2.62,1.4000001 3.98,2.0000001 1.41,-2.5100001 2.57,-5.2500001 4.59,-7.3400001 1.8,0.78 3.52,1.72 5.22,2.69 0.75,0.39 1.06,1.46 0.53,2.15 -0.89,1.6000001 -1.46,3.3500001 -1.92,5.1100001 1.57,0.51 3.14,0.95 4.72,1.43 1.08,-2.98 2.11,-6.0800001 3.92,-8.7100001 2.19,1.47 4.32,3.04 6.58,4.4200001 0.68,-1.8700001 1.25,-3.7800001 1.831,-5.6800001 -2.581,-0.97 -4.951,-2.39 -7.371,-3.69 0.59,-2.02000002 1.67,-3.82 2.53,-5.7302 3.64,0.9903 6.81,3.0602 10.12,4.79019998 0.55,-1.74019998 0.86,-3.54989998 0.79,-5.37999998 -2.12,-1.1 -4.46,-1.5898 -6.63,-2.5398 1.14,-2.1903 2.6,-4.2300999 3.52,-6.5199999 m -0.83,-5.5703 c -1.87,-0.6398 -3.669,-1.4801 -5.56,-2.0597 0.23,0.7199 0.49,1.4199 0.75,2.13 2.05,-0.38 3.55,1.3789 5.2,2.2899 -0.13,-0.7801 -0.24,-1.5699 -0.39,-2.3602 m -12.93,-6.8 c -1.15,-0.7097 -2.28,-1.4597 -3.4,-2.2097 0.12,0.6097 0.26,1.2097 0.39,1.8097 1.08,0.6 2.14,1.2301 3.2,1.85 -0.06,-0.4699 -0.12,-0.9597 -0.19,-1.45 m -17.17,2.9801 c -0.85,1.3902 -1.47,2.8902 -2.16,4.3602 -0.37,0.6097 -0.13,1.3097 0,1.9398 0.82,-1.5691 1.66,-3.15 2.29,-4.8102 -0.03,-0.3699 -0.09,-1.1199 -0.13,-1.4898 m 2.71,13.9397999 c 0.32,0.6903 0.64,1.3801 0.98,2.0602 0.65,-1.35 1.11,-2.7800999 1.609,-4.1897999 -0.54,-0.3 -1.059,-0.5903 -1.589,-0.9 -0.13,1.0796 -0.43,2.1097 -1,3.0295999 m -6.96,14.4702 c 0.43,0.991 0.88,1.97 1.34,2.94 1.06,-2.22 2.53,-4.44 2.29,-7.02000002 -0.2,-0.139 -0.61,-0.43 -0.81,-0.57 -0.77,1.65000002 -1.849,3.12000002 -2.82,4.65000002 m 13.03,5.4100001 c 0.28,0.64 0.58,1.27 0.89,1.9 0.45,-1.4 0.94,-2.7900001 1.52,-4.1400001 -0.45,-0.22 -0.9,-0.45 -1.35,-0.68 -0.38,0.97 -0.73,1.94 -1.06,2.9200001 m 26.61,-18.0098001 c 0.43,3.2199 0.22,6.60979998 -1.17,9.5798 -0.7,0.58 -1.57,-0.02 -2.26,-0.3 -2.77,-1.53000002 -5.61,-2.99 -8.12,-4.9502 -0.26,0.6403 -0.52,1.2801 -0.77,1.9204 1.91,0.62979998 3.82,1.27979998 5.74,1.89979998 0.79,0.24 0.81,1.26000002 0.94,1.93000002 0.38,2.99 -0.92,5.79 -1.89,8.5300001 -0.26,0.55 -0.41,1.27 -1.03,1.52 -0.92,0.29 -1.85,-0.13 -2.6,-0.63 -1.38,-0.92 -2.71,-1.9100001 -4.05,-2.8900001 -1.23,2.3500001 -2.36,4.7600001 -3.26,7.2600001 -0.14,0.7 -0.98,0.71 -1.51,0.47 -1.6,-0.52 -3.2,-1.05 -4.79,-1.61 -1.07,-0.31 -1.64,-1.34 -2.07,-2.28 -0.37,-0.81 -0.81,-1.61 -0.9,-2.51 0.15,-1.2200001 0.72,-2.3300001 1.2,-3.4500001 -0.43,-0.24 -0.87,-0.47 -1.28,-0.72 -1.52,2.36 -3.24,4.6110001 -4.27,7.2400001 -2.5,-0.59 -4.66,-2.03 -6.78,-3.41 -0.35,-1.8100001 -1.73,-3.2300001 -2.02,-5.0500001 0.41,-1.85 1.84,-3.25 2.509,-5.01000002 -1.689,-0.87 -3.349,-1.81019998 -4.999,-2.76019998 -0.9,-0.5597 -2.08,-1.0398 -2.26,-2.2097 -0.38,-1.3699 -1.33,-2.7102 -1,-4.1801 0.51,-1.3698999 1.6,-2.3999999 2.37,-3.6198999 0.52,-0.7301 1.05,-1.7699 2.101,-1.6602 3.019,0.7903 5.429,2.9301 8.349,3.95 0.43,-0.7898 0.86,-1.5801 1.31,-2.35 -1.86,-0.9 -3.46,-2.2597 -5.33,-3.1398 -0.67,-1 -1.61,-2.2301 -0.84,-3.4403 1.15,-2.1296 1.74,-4.7898 3.799,-6.2597 2.401,0.9398 4.621,2.3097 6.781,3.7199 2.1,-2.35 3.04,-5.4898 5.25,-7.75 0.33,-0.4 0.89,-0.65 1.38,-0.3301 1.45,0.7602 2.84,1.6801 4.11,2.7199 0.97,1.3903 0.56,3.2301 0.79,4.8102 0.32,1.9398 -0.83,3.6309 -1.51,5.3398 1.18,0.55 2.37,1.0801 3.6,1.5301 0.58,-2.0398 1.26,-4.0699 2.31,-5.9199 0.4,-0.6898 1.16,-1.4801 2.05,-1.15 1.3,0.4199 2.52,1.0699 3.83,1.4801 0.78,0.3199 1.85,0.5101 2.11,1.4597 0.5,1.6704 0.75,3.4204 1.08,5.1403 0.28,1.5801 -0.95,2.8398 -1.62,4.15 1.38,0.5300999 2.84,0.8300999 4.21,1.3897999 0.27,0.4699 0.42,1.0102 0.51,1.5403"
         style="fill:#171418;fill-opacity:1;fill-rule:nonzero;stroke:none;stroke-width:0.1"
         id="path242724" />
      <path
         d="m -877.08757,-8.2128101 c -0.62,0.9801 -1.19,1.9704 -1.72,2.9903 1.12,0.4398 2.29,0.839 3.51,0.8597 0.51,-0.8398 1.04,-1.6699 1.66,-2.45 -1.16,-0.4699 -2.31,-0.9296 -3.45,-1.4 m 3.34,8.44019998 c -0.52,0.27 -1.06,0.64 -1.66,0.39 -1.56,-0.48 -3.01,-1.26 -4.47,-1.96999998 -0.72,-0.4 -1.8,-0.9102 -1.57,-1.9102 0.34,-1.3707 1.14,-2.5597 1.74,-3.8296 0.64,-1.1301 1.18,-2.4102 2.24,-3.2300999 1.13,0.2 2.15,0.7897999 3.21,1.1999999 1.12,0.5301 2.34,0.9199 3.3,1.7199 0.76,1.0898 0.54,2.5301 0.389,3.7699 -0.429,1.65 -1.139,3.82009998 -3.179,3.86009998"
         style="fill:#171418;fill-opacity:1;fill-rule:nonzero;stroke:none;stroke-width:0.1"
         id="path242726" />
    </g>
  </g>
</svg>
