<?xml version="1.0" encoding="UTF-8" standalone="no"?>
<!-- Created with Inkscape (http://www.inkscape.org/) -->

<svg
   version="1.1"
   id="svg242400"
   width="34.395874"
   height="39.59267"
   viewBox="0 0 34.395874 39.592671"
   sodipodi:docname="14833541_5524640.eps"
   xmlns:inkscape="http://www.inkscape.org/namespaces/inkscape"
   xmlns:sodipodi="http://sodipodi.sourceforge.net/DTD/sodipodi-0.dtd"
   xmlns="http://www.w3.org/2000/svg"
   xmlns:svg="http://www.w3.org/2000/svg">
  <defs
     id="defs242404" />
  <sodipodi:namedview
     id="namedview242402"
     pagecolor="#ffffff"
     bordercolor="#000000"
     borderopacity="0.25"
     inkscape:showpageshadow="2"
     inkscape:pageopacity="0.0"
     inkscape:pagecheckerboard="0"
     inkscape:deskcolor="#d1d1d1"
     showgrid="false" />
  <g
     id="g242408"
     inkscape:groupmode="layer"
     inkscape:label="Page 1"
     transform="matrix(1.3333333,0,0,-1.3333333,1988.6238,677.04471)">
    <path
       d="m -1480.5851,480.71904 c 1.92,-1.24 4.32,-1.31 6.2,-2.63 2.01,1.45 3.35,3.56 4.7,5.59 1.59,2.5 2.62,5.33 3.17,8.23 0.75,3.66 1.43,7.6 0.04,11.19 -0.63,1.57 -1.4,3.25 -2.88,4.19 -1.56,1.03 -3.6,0.3 -4.91,-0.81 -1.96,-1.77 -3.04,-4.28 -3.8,-6.76 -1.12,1.83 -2.76,3.41 -4.86,4.03 -2.44,0.78 -5.47,0.12 -6.98,-2.06 -2.03,-2.81 -1.95,-6.68 -0.52,-9.73 2.11,-4.58 5.52,-8.62 9.84,-11.24"
       style="fill:#171418;fill-opacity:1;fill-rule:nonzero;stroke:none;stroke-width:0.1"
       id="path243124" />
  </g>
</svg>
