<?xml version="1.0" encoding="UTF-8" standalone="no"?>
<!-- Created with Inkscape (http://www.inkscape.org/) -->

<svg
   version="1.1"
   id="svg242400"
   width="110.43994"
   height="64.133331"
   viewBox="0 0 110.43994 64.133332"
   sodipodi:docname="14833541_5524640.eps"
   xmlns:inkscape="http://www.inkscape.org/namespaces/inkscape"
   xmlns:sodipodi="http://sodipodi.sourceforge.net/DTD/sodipodi-0.dtd"
   xmlns="http://www.w3.org/2000/svg"
   xmlns:svg="http://www.w3.org/2000/svg">
  <defs
     id="defs242404" />
  <sodipodi:namedview
     id="namedview242402"
     pagecolor="#ffffff"
     bordercolor="#000000"
     borderopacity="0.25"
     inkscape:showpageshadow="2"
     inkscape:pageopacity="0.0"
     inkscape:pagecheckerboard="0"
     inkscape:deskcolor="#d1d1d1"
     showgrid="false" />
  <g
     id="g242408"
     inkscape:groupmode="layer"
     inkscape:label="Page 1"
     transform="matrix(1.3333333,0,0,-1.3333333,2339.2661,678.91836)">
    <g
       id="g247980"
       transform="translate(-292.77052,151.58193)">
      <path
         d="m -1397.0091,343.74685 c -5.85,-5.12 -11.79,-10.14 -17.5,-15.41 -2.46,-2.33 -4.83,-4.75 -7,-7.35 -0.83,-0.99 -1.7,-1.95 -2.62,-2.86 -4.85,3.84 -10.04,7.23 -14.78,11.2 4.73,3.33 9.69,6.33 14.39,9.72 2.84,2.04 5.8,3.94 8.51,6.16 0.65,0.44 0.91,1.21 1.14,1.92 -1.73,-0.11 -3.34,-0.83 -4.97,-1.38 -8.29,-3.11 -16.81,-5.6 -25.03,-8.92 -2.33,2.03 -5,3.61 -7.52,5.4 -2.04,1.47 -4.1202,2.89 -6.1198,4.42 5.7498,1.93 11.8298,2.37 17.7898,3.16 9.81,1.28 19.66,2.17 29.52,2.84 9.38,0.63 18.67,2.22 28.07,2.59 -4.68,-3.77 -9.37,-7.52 -13.88,-11.49 m -43.83,-30.84 c 0.43,2.6 0.92,5.21 1.02,7.86 0.1,2.34 0.16,4.67 0.33,7.01 2.76,-2.15 5.52,-4.29 8.3,-6.41 -3.54,-2.41 -6.61,-5.46 -9.65,-8.46 m -11.26,36.36 c -1.7,-0.28 -3.4301,-0.31 -5.1102,-0.73 -1.4699,-0.37 -3.0199,-0.2 -4.4699,-0.64 0,-0.93 0.6301,-1.66 1.35,-2.17 4.3106,-3.25 8.9701,-6.04 13.2701,-9.31 1.18,-0.75 0.87,-2.3 0.98,-3.49 -0.06,-3.83 0.61,-7.62 1.1,-11.42 0.49,-3.26 0.94,-6.54 1.72,-9.75 0.18,-0.85 0.67,-1.59 1.22,-2.25 0.51,0.64 1.01,1.29 1.63,1.83 3.45,3.07 7.37,5.65 10.49,9.09 2.04,-1.45 3.83,-3.22 5.84,-4.71 0.68,0.18 1.13,0.79 1.61,1.26 3.97,4.49 8.46,8.48 12.86,12.53 0.07,0.18 0.21,0.55 0.28,0.73 1.7,1.42 3.26,3.02 5.05,4.33 3.49,2.56 6.61,5.57 9.84,8.43 4.51,4.59 9.88,8.22 14.73,12.42 0.52,0.52 0.61,1.3 0.86,1.95 -0.65,0.13 -1.32,0.24 -1.99,0.24 -9.6,-0.21 -19.08,-1.93 -28.62,-2.81 -14.28,-1.23 -28.57,-2.72 -42.64,-5.53"
         style="fill:#171418;fill-opacity:1;fill-rule:nonzero;stroke:none;stroke-width:0.1"
         id="path243190" />
      <path
         d="m -1415.5691,336.55685 c 1.72,-1.39 3.46,-2.77 5.38,-3.88 -1.21,1.87 -2.95,3.89 -5.38,3.88"
         style="fill:#171418;fill-opacity:1;fill-rule:nonzero;stroke:none;stroke-width:0.1"
         id="path243192" />
      <path
         d="m -1419.2991,333.96685 c 1.56,-1.69 3.42,-3.3 5.71,-3.86 -1.59,1.67 -3.38,3.35 -5.71,3.86"
         style="fill:#171418;fill-opacity:1;fill-rule:nonzero;stroke:none;stroke-width:0.1"
         id="path243194" />
      <path
         d="m -1416.1191,328.89685 c -1.84,0.88 -3.63,1.98 -5.69,2.25 1.52,-1.43 3.6,-2.28 5.69,-2.25"
         style="fill:#171418;fill-opacity:1;fill-rule:nonzero;stroke:none;stroke-width:0.1"
         id="path243196" />
    </g>
  </g>
</svg>
