<?xml version="1.0" encoding="UTF-8" standalone="no"?>
<!-- Created with Inkscape (http://www.inkscape.org/) -->

<svg
   version="1.1"
   id="svg242400"
   width="127.45752"
   height="160.08525"
   viewBox="0 0 127.45752 160.08525"
   sodipodi:docname="14833541_5524640.eps"
   xmlns:inkscape="http://www.inkscape.org/namespaces/inkscape"
   xmlns:sodipodi="http://sodipodi.sourceforge.net/DTD/sodipodi-0.dtd"
   xmlns="http://www.w3.org/2000/svg"
   xmlns:svg="http://www.w3.org/2000/svg">
  <defs
     id="defs242404" />
  <sodipodi:namedview
     id="namedview242402"
     pagecolor="#ffffff"
     bordercolor="#000000"
     borderopacity="0.25"
     inkscape:showpageshadow="2"
     inkscape:pageopacity="0.0"
     inkscape:pagecheckerboard="0"
     inkscape:deskcolor="#d1d1d1"
     showgrid="false" />
  <g
     id="g242408"
     inkscape:groupmode="layer"
     inkscape:label="Page 1"
     transform="matrix(1.3333333,0,0,-1.3333333,2040.8312,465.1784)">
    <path
       d="m -1523.1235,331.05145 c 0.66,1.12 1.93,1.66 3.03,2.25 6.6,3.11 13.7,4.9 20.83,6.28 3.88,0.75 7.66,1.9 11.54,2.64 1.68,0.39 3.38,0.56 5.08,0.78 0.98,0.13 1.96,0.27 2.92,0.47 4.27,0.91 8.66,1.04 12.92,2 2.58,0.39 5.41,0.57 7.78,-0.72 1.13,-0.57 2.24,-1.37 2.76,-2.58 2.97,-6.18 4.51,-12.91 6.7,-19.38 2.43,-6.94 3.39,-14.25 5.19,-21.36 2.29,-9.17 3.68,-18.54 5.53,-27.81 1.13,-5.83 2.44,-11.81 1.47,-17.77 -0.41,-2.8 -2.13,-5.27 -4.44,-6.87 -3.47,-2.66 -7.8,-3.69 -11.95,-4.74 -4.92,-1.21 -9.84,-2.5 -14.81,-3.49 -2.5,-0.5 -5.01,-0.92 -7.54,-1.21 -5.19,-0.59 -10.38,-1.27 -15.61,-1.41 -3.94,0.12 -7.94,0.32 -11.75,1.39 -1.55,0.39 -2.66,1.67 -3.33,3.05 -1.35,2.72 -1.97,5.72 -2.73,8.63 -1.76,7.29 -3.97,14.47 -5.31,21.85 -1.49,8 -3.58,15.88 -4.63,23.95 -0.69,4.92 -1.22,9.86 -1.86,14.79 -0.68,5.24 -1.82,10.42 -2.08,15.7 -0.05,1.19 -0.07,2.41 0.29,3.56 m 82.46,-87.86 c 2.03,2.47 3.97,5.2 4.68,8.37 0.11,1.6 0.35,3.17 0.68,4.73 0.85,6.08 -0.46,12.17 -1.51,18.14 -1.73,9.21 -3.13,18.49 -5.36,27.6 -1.78,7.18 -2.73,14.57 -5.09,21.59 -2.21,6.8 -3.72,13.86 -6.83,20.33 -1.08,2.33 -3.44,3.76 -5.76,4.63 -1.91,0.48 -3.92,0.29 -5.85,0.1 -2.57,-0.4 -5.09,-1.13 -7.68,-1.43 -2.18,-0.25 -4.35,-0.6 -6.48,-1.11 -2.74,-0.67 -5.58,-0.81 -8.3,-1.56 -9.2,-2.35 -18.51,-4.35 -27.48,-7.52 -3.01,-1.08 -6.1,-2.18 -8.65,-4.16 -3.06,-2.15 -5.24,-5.45 -6.19,-9.04 -0.24,-2.08 -0.17,-4.19 0.2,-6.25 0.63,-3.75 0.9,-7.55 1.74,-11.25 1.55,-6.83 2.47,-13.76 4.02,-20.58 1.08,-5.37 2.94,-10.55 3.79,-15.97 0.96,-6.15 2.65,-12.17 4.44,-18.12 1.56,-5.66 2.22,-11.73 5.34,-16.83 0.85,-1.56 1.74,-3.28 3.43,-4.08 1.82,-0.81 3.79,-1.27 5.74,-1.6 4.36,-0.5 8.78,-0.51 13.12,0.15 4.84,0.74 9.74,1.23 14.53,2.28 3.2,0.71 6.41,1.4 9.67,1.83 6.35,0.82 12.63,2.41 18.5,4.99 2.26,0.94 3.73,2.98 5.3,4.76"
       style="fill:#171418;fill-opacity:1;fill-rule:nonzero;stroke:none;stroke-width:0.1"
       id="path243068" />
    <path
       d="m -1512.2435,329.47145 c 1.51,0.7 2.8,1.85 4.44,2.29 2.16,0.67 4.3,1.43 6.53,1.86 0.75,-1.42 1.34,-3.08 2.77,-3.97 1.2,-0.79 2.73,-0.71 4.09,-0.49 2.52,0.5 4.92,1.45 7.34,2.27 3.41,1.18 6.9,2.11 10.29,3.35 0.94,0.4 2.06,0.73 2.57,1.69 0.58,1 0.51,2.2 0.5,3.31 3.52,0.52 7.08,1.09 10.66,1.07 0.75,-0.05 1.81,0.01 2.17,-0.82 1.16,-2.45 1.3,-5.2 1.58,-7.86 0.5,-4.87 1.74,-9.63 3.05,-14.33 1.08,-3.88 1.53,-7.89 2.44,-11.81 0.99,-4.29 1.93,-8.58 2.87,-12.88 0.88,-4.06 1.1,-8.23 2.1,-12.27 1.24,-5.8 3.08,-11.54 3.27,-17.51 -0.08,-1.16 -0.83,-2.18 -1.83,-2.73 -2.85,-1.75 -6.05,-2.8 -9.25,-3.7 -3.32,-0.93 -6.66,-1.84 -10.01,-2.68 -4.43,-1.15 -8.97,-1.86 -13.36,-3.13 -2.64,-0.78 -5.33,-1.44 -8.08,-1.62 -2.51,-0.17 -5.03,-0.72 -7.56,-0.46 -1.49,0.12 -2.39,1.46 -3.2,2.55 -2.68,3.68 -3.64,8.23 -4.58,12.59 -1.06,4.92 -2.41,9.79 -3.19,14.77 -0.56,3.59 -1.31,7.14 -2.33,10.61 -0.99,3.42 -1.65,6.92 -2.43,10.38 -0.7,3.14 -1.96,6.12 -2.48,9.29 -0.4,2.37 -0.59,4.78 -1.06,7.14 -0.78,3.87 -1.51,7.77 -1.73,11.73 1.48,0.39 3.05,0.61 4.42,1.36 m -3.78,-17.03 c 0.35,-2.87 0.89,-5.74 1.84,-8.49 1.57,-4.58 2.17,-9.41 3.48,-14.06 1.04,-3.63 1.83,-7.32 2.37,-11.04 0.69,-4.71 1.82,-9.34 2.88,-13.97 1.03,-4.82 2.06,-9.8 4.84,-13.97 1.17,-1.75 2.67,-3.81 5.01,-3.81 2.73,0 5.44,0.52 8.16,0.73 4.55,0.34 8.82,2.07 13.27,2.9 1.26,0.25 2.52,0.5 3.77,0.77 3.45,0.75 6.87,1.59 10.27,2.5 4.7,1.27 9.59,2.27 13.8,4.84 1.82,1.05 2.75,3.23 2.6,5.28 -0.1,2.31 -0.5,4.59 -0.91,6.85 -1.44,5.94 -3.14,11.83 -3.89,17.91 -1.19,7.71 -3.49,15.21 -4.91,22.88 -1.03,6.31 -3.47,12.29 -4.41,18.63 -0.52,3 -0.53,6.11 -1.54,9.01 -0.36,1.14 -0.86,2.49 -2.16,2.79 -2.42,0.59 -4.94,0.22 -7.39,0.03 -1.84,-0.31 -3.81,-0.12 -5.55,-0.87 -1.2,-0.56 -0.64,-2.05 -0.72,-3.08 0.15,-1.09 -1,-1.52 -1.81,-1.84 -1.46,-0.51 -2.94,-0.96 -4.42,-1.39 -1.43,-0.42 -2.87,-0.82 -4.29,-1.25 -3.09,-0.89 -6.08,-2.12 -9.22,-2.81 -1.28,-0.32 -2.87,-0.15 -3.69,1.01 -0.84,0.91 -1.1,2.46 -2.38,2.88 -1.64,-0.04 -3.17,-0.75 -4.7,-1.27 -3.2,-1.29 -6.61,-1.98 -9.72,-3.49 -1.13,-0.62 -2.91,-0.47 -3.42,-1.88 -0.14,-2.18 0.57,-4.3 0.97,-6.43 0.57,-3.12 1.48,-6.19 1.87,-9.36"
       style="fill:#171418;fill-opacity:1;fill-rule:nonzero;stroke:none;stroke-width:0.1"
       id="path243070" />
    <path
       d="m -1478.7635,296.66145 c 0.61,3.83 0.36,7.77 1.39,11.54 0.22,1.16 0.95,2.12 1.59,3.08 1.65,0.28 3.19,1 4.47,2.08 0.77,-1.1 1.55,-2.19 2.41,-3.22 2.68,-2.89 3.76,-6.8 4.79,-10.5 -4.87,-1.06 -9.73,-2.13 -14.65,-2.98 m -14.12,-2.46 c -0.73,2.44 -1.32,4.96 -1.21,7.52 0.02,1.98 0.42,3.92 0.76,5.86 2.22,-0.63 4.64,-0.22 6.39,1.31 1.49,-2.27 2.85,-4.64 3.82,-7.19 0.7,-1.81 0.92,-3.76 1.44,-5.63 -3.7,-0.82 -7.44,-1.41 -11.2,-1.87 m 12.83,23.49 c 0.68,1.61 2.25,2.71 3.89,3.15 1.78,0.5 4.14,0.03 5.04,-1.73 1.15,-3.48 -2.47,-7.17 -5.95,-6.58 -2.17,0.5 -3.81,2.99 -2.98,5.16 m -15.57,-4.84 c 0.16,1.61 1.6,2.76 3.02,3.31 1.96,0.76 4.7,0.28 5.76,-1.7 1.1,-2.63 -1.08,-5.67 -3.78,-6.01 -2.57,-0.54 -5.15,1.83 -5,4.4 m -10.59,-17.02 c 0.43,-1.69 1.18,-3.63 2.96,-4.28 2.6,-0.74 5.34,-0.17 7.93,0.33 3.64,0.73 7.33,1.08 10.95,1.89 6.9,1.57 13.9,2.69 20.73,4.54 1.09,0.37 2.27,0.75 3.03,1.65 0.76,1.05 1.04,2.35 1.22,3.61 0.36,3.09 -0.01,6.19 -0.17,9.29 -0.16,3.09 -1.01,6.08 -1.85,9.04 -0.63,2.29 -1.21,4.77 -2.74,6.62 -2.22,0.72 -4.65,0.77 -6.96,0.49 -1.93,-0.44 -3.89,-0.76 -5.84,-1.05 -7.02,-1.3 -14.03,-2.62 -21,-4.17 -2.97,-0.68 -6.03,-1.14 -8.88,-2.26 -1.64,-0.68 -3.38,-1.86 -3.66,-3.75 -0.48,-2.88 0.24,-5.79 0.84,-8.6 0.99,-4.49 2.48,-8.85 3.44,-13.35"
       style="fill:#171418;fill-opacity:1;fill-rule:nonzero;stroke:none;stroke-width:0.1"
       id="path243072" />
    <path
       d="m -1467.2735,291.10145 c -2.3,0.96 -4.82,-0.36 -6.37,-2.06 -2.57,-2.92 -3.93,-6.75 -4.37,-10.58 -2.06,2.12 -4.57,3.79 -7.27,4.96 -1.6,0.71 -3.5,0.92 -5.1,0.11 -2,-0.9 -3.03,-3.29 -2.52,-5.39 0.55,-2.38 1.99,-4.44 3.46,-6.35 2.94,-3.67 6.55,-6.9 10.84,-8.89 1.74,-0.92 3.79,-1.27 5.29,-2.59 0.32,-0.21 0.68,-0.76 0.99,-0.21 3.14,2.72 5.03,6.48 6.57,10.26 1.92,4.95 3.21,10.39 2.05,15.69 -0.46,2.04 -1.48,4.25 -3.57,5.05"
       style="fill:#171418;fill-opacity:1;fill-rule:nonzero;stroke:none;stroke-width:0.1"
       id="path243074" />
    <path
       d="m -1466.5335,245.91145 c -0.1,-1.48 -1.74,-2.15 -2.98,-2.49 -1.65,-0.44 -3.77,0.96 -3.29,2.8 0.44,1.15 1.65,1.84 2.73,2.31 1.55,0.35 3.87,-0.76 3.54,-2.62 m -3.59,4.33 c -0.24,-0.04 -0.47,-0.1 -0.69,-0.19 -2.38,-0.75 -3.66,-3.71 -2.62,-5.93 0.85,-1.72 2.78,-2.3 4.58,-2.02 2.11,0.34 4.04,1.85 3.9,4.13 0.21,2.64 -2.77,4.43 -5.17,4.01"
       style="fill:#171418;fill-opacity:1;fill-rule:nonzero;stroke:none;stroke-width:0.1"
       id="path243076" />
    <path
       d="m -1481.9635,336.87145 c 0.14,0.03 0.28,0.07 0.42,0.13 1.1,0.85 1.26,2.38 1.29,3.67 -0.66,0.3 -1.4,0.41 -2.11,0.31 -0.52,-0.08 -1.03,-0.28 -1.47,-0.61 -0.42,-0.55 -0.67,-1.21 -0.98,-1.82 0.54,-1.08 1.64,-1.92 2.85,-1.68"
       style="fill:#171418;fill-opacity:1;fill-rule:nonzero;stroke:none;stroke-width:0.1"
       id="path243078" />
    <path
       d="m -1494.4235,256.85145 c -0.59,-0.27 -1.06,-0.73 -1.46,-1.23 3.29,0.47 6.58,1.42 9.36,3.29 -2.76,0.04 -5.45,-0.84 -7.9,-2.06"
       style="fill:#171418;fill-opacity:1;fill-rule:nonzero;stroke:none;stroke-width:0.1"
       id="path243080" />
    <path
       d="m -1488.8535,335.36145 c 1.59,0.77 1.5,2.85 1.39,4.35 -1.41,0.62 -3.38,0.15 -3.75,-1.52 0.06,-1.23 0.9,-2.98 2.36,-2.83"
       style="fill:#171418;fill-opacity:1;fill-rule:nonzero;stroke:none;stroke-width:0.1"
       id="path243082" />
    <path
       d="m -1495.3835,259.93145 c -0.53,-0.13 -0.67,-0.66 -0.86,-1.09 3.26,0.69 6.63,1.02 9.77,2.2 -2.99,0.88 -6.15,0.16 -8.91,-1.11"
       style="fill:#171418;fill-opacity:1;fill-rule:nonzero;stroke:none;stroke-width:0.1"
       id="path243084" />
    <path
       d="m -1501.7435,283.85145 c 0.22,-0.36 0.44,-0.71 0.66,-1.06 1.52,0.31 3.02,0.72 4.47,1.28 1.69,0.66 3.49,1.04 5.11,1.89 -3.51,0.01 -7.04,-0.63 -10.24,-2.11"
       style="fill:#171418;fill-opacity:1;fill-rule:nonzero;stroke:none;stroke-width:0.1"
       id="path243086" />
    <path
       d="m -1493.8635,251.92145 c 2.63,-0.01 5.24,0.84 7.44,2.25 -2.62,-0.38 -5.14,-1.27 -7.76,-1.73 0.08,-0.13 0.24,-0.39 0.32,-0.52"
       style="fill:#171418;fill-opacity:1;fill-rule:nonzero;stroke:none;stroke-width:0.1"
       id="path243088" />
    <path
       d="m -1495.3635,332.94145 c 1.27,0.9 2.47,2.44 2.05,4.09 -0.39,1.16 -1.89,1.49 -2.9,0.96 -1.19,-0.8 -1.88,-2.63 -1.05,-3.92 0.36,-0.65 1.05,-1.57 1.9,-1.13"
       style="fill:#171418;fill-opacity:1;fill-rule:nonzero;stroke:none;stroke-width:0.1"
       id="path243090" />
    <path
       d="m -1498.8135,288.19145 c -1.53,-0.38 -3.23,-0.49 -4.49,-1.55 5.29,0.43 10.85,0.89 15.52,3.64 -3.7,-0.57 -7.36,-1.36 -11.03,-2.09"
       style="fill:#171418;fill-opacity:1;fill-rule:nonzero;stroke:none;stroke-width:0.1"
       id="path243092" />
  </g>
</svg>
